<svg xmlns="http://www.w3.org/2000/svg" width="382" height="170" viewBox="0 0 382 170">
<text x="191" y="34" font-family="Helvetica Neue,Helvetica,Arial,sans-serif" font-size="16" font-weight="300" fill="#FFFFFF" text-anchor="middle" letter-spacing="7">A FEW LITTLE</text>
<g transform="translate(20,56)"><path d="M34,2 C12,0 2,20 19,26" stroke="#FF6B6B" stroke-width="10" stroke-linecap="round" fill="none"/></g>
<g transform="translate(20,56)"><path d="M19,26 C36,32 40,52 6,52" stroke="#00B4D8" stroke-width="10" stroke-linecap="round" fill="none"/></g>
<g transform="translate(66,56)"><path d="M4,5 H38" stroke="#9B5DE5" stroke-width="10" stroke-linecap="round" fill="none"/></g>
<g transform="translate(66,56)"><path d="M21,5 V52" stroke="#FFC300" stroke-width="10" stroke-linecap="round" fill="none"/></g>
<g transform="translate(112,56)"><path d="M6,0 V52" stroke="#FFC300" stroke-width="10" stroke-linecap="round" fill="none"/></g>
<g transform="translate(130,56)"><path d="M4,5 H38" stroke="#00B4D8" stroke-width="10" stroke-linecap="round" fill="none"/></g>
<g transform="translate(130,56)"><path d="M21,5 V52" stroke="#FF6B6B" stroke-width="10" stroke-linecap="round" fill="none"/></g>
<g transform="translate(176,56)"><path d="M33.9,4.4 A23,23 0 0,0 3,26" stroke="#9B5DE5" stroke-width="10" stroke-linecap="round" fill="none"/></g>
<g transform="translate(176,56)"><path d="M3,26 A23,23 0 0,0 33.9,47.6" stroke="#FFC300" stroke-width="10" stroke-linecap="round" fill="none"/></g>
<g transform="translate(222,56)"><path d="M6,0 V52" stroke="#00B4D8" stroke-width="10" stroke-linecap="round" fill="none"/></g>
<g transform="translate(222,56)"><path d="M38,0 V52" stroke="#FF6B6B" stroke-width="10" stroke-linecap="round" fill="none"/></g>
<g transform="translate(222,56)"><path d="M6,26 H38" stroke="#9B5DE5" stroke-width="10" stroke-linecap="round" fill="none"/></g>
<g transform="translate(272,56)"><path d="M6,0 V52" stroke="#FFC300" stroke-width="10" stroke-linecap="round" fill="none"/></g>
<g transform="translate(272,56)"><path d="M6,0 H38" stroke="#00B4D8" stroke-width="10" stroke-linecap="round" fill="none"/></g>
<g transform="translate(272,56)"><path d="M6,26 H30" stroke="#FF6B6B" stroke-width="10" stroke-linecap="round" fill="none"/></g>
<g transform="translate(272,56)"><path d="M6,52 H38" stroke="#9B5DE5" stroke-width="10" stroke-linecap="round" fill="none"/></g>
<g transform="translate(322,56)"><path d="M34,2 C12,0 2,20 19,26" stroke="#FF6B6B" stroke-width="10" stroke-linecap="round" fill="none"/></g>
<g transform="translate(322,56)"><path d="M19,26 C36,32 40,52 6,52" stroke="#00B4D8" stroke-width="10" stroke-linecap="round" fill="none"/></g>
<path d="M22,108 Q17,122 19,138" stroke="#00B4D8" stroke-width="2.2" stroke-linecap="round" fill="none"/>
<path d="M30,108 Q36,122 33,138" stroke="#00B4D8" stroke-width="2.2" stroke-linecap="round" fill="none"/>
<path d="M352,58 Q347,72 349,88" stroke="#FF6B6B" stroke-width="2.2" stroke-linecap="round" fill="none"/>
<path d="M360,58 Q366,72 363,88" stroke="#FF6B6B" stroke-width="2.2" stroke-linecap="round" fill="none"/>
<text x="191" y="146" font-family="Helvetica Neue,Helvetica,Arial,sans-serif" font-size="13" font-weight="400" fill="#AAAAAA" text-anchor="middle" letter-spacing="3">crafting community</text>
</svg>
